<?xml version="1.0" encoding="UTF-8" standalone="no"?><svg version="1.2" x="0px" y="0px" width="200" height="175.327" viewBox="0 0 200 175.327" xml:space="preserve" id="svg12" sodipodi:docname="strava-logo-ext.svg" inkscape:version="1.3.2 (091e20e, 2023-11-25, custom)" xmlns:inkscape="http://www.inkscape.org/namespaces/inkscape" xmlns:sodipodi="http://sodipodi.sourceforge.net/DTD/sodipodi-0.dtd" xmlns="http://www.w3.org/2000/svg" xmlns:svg="http://www.w3.org/2000/svg"><defs id="defs12" /><sodipodi:namedview id="namedview12" pagecolor="#ffffff" bordercolor="#000000" borderopacity="0.25" inkscape:showpageshadow="2" inkscape:pageopacity="0.0" inkscape:pagecheckerboard="0" inkscape:deskcolor="#d1d1d1" inkscape:zoom="4.4465026" inkscape:cx="80.737612" inkscape:cy="96.367874" inkscape:window-width="1920" inkscape:window-height="1171" inkscape:window-x="-9" inkscape:window-y="-9" inkscape:window-maximized="1" inkscape:current-layer="svg12" /><path fill="#fc5200" d="m 19.161621,40.397949 c -3.805664,0 -7.35791,-0.529785 -10.649902,-1.575684 C 5.219238,37.769043 2.383301,36.194824 0,34.101074 l 6.67041,-7.949707 c 2.027344,1.563477 4.166016,2.685059 6.403809,3.359375 2.241699,0.676758 4.467773,1.015137 6.673828,1.015137 1.141113,0 1.956055,-0.143555 2.456055,-0.424805 0.501953,-0.286621 0.746094,-0.678711 0.746094,-1.174316 v -0.106445 c 0,-0.538086 -0.368652,-0.98877 -1.094238,-1.337402 C 21.130372,27.126466 19.763185,26.754884 17.770997,26.364747 15.672852,25.935059 13.669435,25.434083 11.768556,24.866212 9.863771,24.301759 8.192872,23.568849 6.752443,22.678224 5.309572,21.791505 4.163088,20.666505 3.307131,19.315919 2.453127,17.961915 2.025881,16.306153 2.025881,14.351075 v -0.106934 c 0,-1.780762 0.346191,-3.437012 1.042969,-4.965332 C 3.756836,7.749512 4.772949,6.412109 6.10791,5.276855 7.443359,4.137207 9.101074,3.249511 11.077637,2.60498 13.04541,1.965332 15.315918,1.645507 17.881836,1.645507 c 3.625,0 6.800781,0.428711 9.523926,1.284668 2.723145,0.848145 5.166992,2.130859 7.34082,3.837891 l -6.083496,8.435059 c -1.779785,-1.28418 -3.658203,-2.217285 -5.631836,-2.806152 -1.97998,-0.588379 -3.831543,-0.882812 -5.57959,-0.882812 -0.922852,0 -1.607422,0.142578 -2.051758,0.427734 -0.452637,0.284668 -0.667969,0.660156 -0.667969,1.121094 v 0.105469 c 0,0.501953 0.334473,0.929199 1.013184,1.286133 0.679199,0.354004 1.994141,0.729004 3.948242,1.120117 2.385254,0.424805 4.554199,0.941895 6.516602,1.543457 1.953125,0.61084 3.639648,1.381348 5.041504,2.32666 1.405273,0.942383 2.494141,2.067383 3.256836,3.388184 0.763672,1.316895 1.147461,2.92041 1.147461,4.802734 v 0.109863 c 0,1.954102 -0.390137,3.719727 -1.17627,5.282715 -0.780762,1.567383 -1.88623,2.890137 -3.309082,3.978516 -1.424316,1.08252 -3.151855,1.917969 -5.179199,2.506348 -2.024902,0.589842 -4.306641,0.884764 -6.82959,0.884764 z" id="path1" /><polygon fill="#fc5200" points="69.446777,2.342285 69.446777,12.902832 58.447754,12.902832 58.447754,39.69873 45.95459,39.69873 45.95459,12.902832 34.958984,12.902832 34.958984,2.342285 " id="polygon1" /><path fill="#fc5200" d="m 89.086914,20.115234 c 1.495605,0 2.671875,-0.321289 3.521484,-0.960449 0.854004,-0.641602 1.283203,-1.534668 1.283203,-2.672852 v -0.10791 c 0,-1.207031 -0.429199,-2.108398 -1.283203,-2.689941 -0.849609,-0.588379 -2.011719,-0.879883 -3.466309,-0.879883 h -5.447754 v 7.311035 z M 71.203125,2.342285 h 18.258301 c 3.344238,0 6.092773,0.383789 8.244141,1.148438 2.15625,0.763672 3.886723,1.806641 5.204593,3.123535 1.1416,1.135254 1.99463,2.418945 2.5664,3.837402 0.56641,1.423828 0.85352,3.102051 0.85352,5.01416 v 0.11377 c 0,2.737305 -0.65869,5.050781 -1.97949,6.93457 -1.31299,1.885254 -3.10938,3.384766 -5.390628,4.48291 L 107.6582,39.69873 H 93.40918 L 86.361817,29.02539 H 86.260255 83.694337 V 39.69873 H 71.203125 Z" id="path2" /><polygon fill="#fc5200" points="179.88965,0 159.78174,39.69873 171.75342,39.69873 179.88965,23.627441 188.03223,39.69873 200,39.69873 " id="polygon2" /><polygon fill="#fc5200" points="123.91846,0 103.81885,39.69873 115.78418,39.69873 123.91846,23.627441 132.05811,39.69873 144.02881,39.69873 " id="polygon3" /><polygon fill="#fc5200" points="151.9126,42.041016 172.01416,2.342285 160.05176,2.342285 151.9126,18.412598 143.76709,2.342285 131.79639,2.342285 " id="polygon4" /><path fill="#ffffff" d="m 19.161621,84.541016 c -3.805664,0 -7.35791,-0.529785 -10.649902,-1.575684 C 5.219238,81.912598 2.383301,80.337891 0,78.244141 l 6.67041,-7.949707 c 2.027344,1.563477 4.166016,2.685059 6.403809,3.359375 2.241699,0.676758 4.467773,1.015137 6.673828,1.015137 1.141113,0 1.956055,-0.143555 2.456055,-0.424805 0.501953,-0.286133 0.746094,-0.678223 0.746094,-1.174316 V 72.96338 c 0,-0.538086 -0.368652,-0.98877 -1.094238,-1.337402 C 21.130372,71.269533 19.763185,70.897951 17.770997,70.508302 15.672852,70.078126 13.669435,69.57715 11.768556,69.009767 9.863771,68.445314 8.192872,67.712404 6.752443,66.82129 5.30957,65.93457 4.163086,64.80957 3.307129,63.458984 2.453125,62.10498 2.025879,60.449218 2.025879,58.49414 v -0.106934 c 0,-1.780762 0.346191,-3.437012 1.042969,-4.965332 0.687988,-1.529297 1.704102,-2.866699 3.039062,-4.001953 1.335449,-1.13916 2.993164,-2.027344 4.969727,-2.671875 1.967773,-0.63916 4.238281,-0.959473 6.804199,-0.959473 3.625,0 6.800781,0.428711 9.523926,1.285156 2.723145,0.847656 5.166992,2.130371 7.34082,3.837402 l -6.083496,8.435059 c -1.779785,-1.28418 -3.658203,-2.217285 -5.631836,-2.806152 -1.97998,-0.588379 -3.831543,-0.882812 -5.57959,-0.882812 -0.922852,0 -1.607422,0.142578 -2.051758,0.428223 -0.452637,0.28418 -0.667969,0.659668 -0.667969,1.120605 v 0.105957 c 0,0.501465 0.334473,0.928711 1.013184,1.285645 0.679199,0.354492 1.994141,0.729004 3.948242,1.120117 2.385254,0.424805 4.554199,0.941895 6.516602,1.543457 1.953125,0.61084 3.639648,1.381836 5.041504,2.327148 1.405273,0.941895 2.494141,2.066895 3.256836,3.387695 0.763672,1.316895 1.147461,2.92041 1.147461,4.802734 v 0.109863 c 0,1.954102 -0.390137,3.719727 -1.17627,5.282715 -0.780762,1.567383 -1.88623,2.890625 -3.309082,3.978516 -1.424316,1.08252 -3.151855,1.917969 -5.179199,2.506348 -2.024902,0.590333 -4.306641,0.884767 -6.82959,0.884767 z" id="path4" /><polygon fill="#ffffff" points="69.446777,46.485352 69.446777,57.045898 58.447754,57.045898 58.447754,83.841797 45.95459,83.841797 45.95459,57.045898 34.958984,57.045898 34.958984,46.485352 " id="polygon5" /><path fill="#ffffff" d="m 89.086914,64.258301 c 1.495605,0 2.671875,-0.321289 3.521484,-0.960449 0.854004,-0.641602 1.283203,-1.534668 1.283203,-2.672852 v -0.10791 c 0,-1.207031 -0.429199,-2.10791 -1.283203,-2.689941 -0.849609,-0.588379 -2.011719,-0.879883 -3.466309,-0.879883 h -5.447754 v 7.311035 z M 71.203125,46.485352 h 18.258301 c 3.344238,0 6.092773,0.383789 8.244141,1.148438 2.15625,0.763672 3.886723,1.806641 5.204593,3.123535 1.1416,1.135254 1.99463,2.418945 2.5664,3.837402 0.56641,1.423828 0.85352,3.102051 0.85352,5.01416 v 0.11377 c 0,2.737305 -0.65869,5.050781 -1.97949,6.93457 -1.31299,1.885254 -3.10938,3.384766 -5.390628,4.48291 l 8.698238,12.70166 H 93.40918 l -7.047363,-10.67334 h -0.101562 -2.565918 v 10.67334 H 71.203125 Z" id="path5" /><polygon fill="#ffffff" points="179.88965,44.143066 159.78174,83.841797 171.75342,83.841797 179.88965,67.770508 188.03223,83.841797 200,83.841797 " id="polygon6" /><polygon fill="#ffffff" points="123.91846,44.143066 103.81885,83.841797 115.78418,83.841797 123.91846,67.770508 132.05811,83.841797 144.02881,83.841797 " id="polygon7" /><polygon fill="#ffffff" points="151.9126,86.184082 172.01416,46.485352 160.05176,46.485352 151.9126,62.555664 143.76709,46.485352 131.79639,46.485352 " id="polygon8" /><path fill="#b0b0b0" d="m 19.161621,128.68408 c -3.805664,0 -7.35791,-0.52978 -10.649902,-1.57568 C 5.219238,126.05566 2.383301,124.48096 0,122.38721 l 6.67041,-7.94922 c 2.027344,1.56299 4.166016,2.68506 6.403809,3.35937 2.241699,0.67627 4.467773,1.01514 6.673828,1.01514 1.141113,0 1.956055,-0.14404 2.456055,-0.42529 0.501953,-0.28614 0.746094,-0.67823 0.746094,-1.17432 v -0.10644 c 0,-0.53809 -0.368652,-0.98828 -1.094238,-1.33741 -0.725586,-0.35595 -2.092773,-0.72753 -4.084961,-1.11767 -2.098145,-0.43018 -4.101562,-0.93115 -6.002441,-1.49854 -1.904785,-0.56445 -3.575684,-1.29736 -5.016113,-2.18847 -1.442871,-0.88672 -2.589355,-2.01172 -3.445312,-3.36231 -0.854004,-1.354 -1.28125,-3.00928 -1.28125,-4.96484 v -0.10645 c 0,-1.78076 0.346191,-3.437498 1.042969,-4.965818 0.687988,-1.529297 1.704102,-2.866699 3.039062,-4.001953 1.335449,-1.13916 2.993164,-2.027344 4.969727,-2.671875 1.967773,-0.63916 4.238281,-0.959473 6.804199,-0.959473 3.625,0 6.800781,0.429199 9.523926,1.285156 2.723145,0.847656 5.166992,2.130859 7.34082,3.837402 l -6.083496,8.435061 c -1.779785,-1.28418 -3.658203,-2.2168 -5.631836,-2.80615 -1.97998,-0.58838 -3.831543,-0.882816 -5.57959,-0.882816 -0.922852,0 -1.607422,0.142578 -2.051758,0.428226 -0.452637,0.28418 -0.667969,0.65966 -0.667969,1.1206 v 0.10596 c 0,0.50195 0.334473,0.92871 1.013184,1.28613 0.679199,0.35401 1.994141,0.72852 3.948242,1.11963 2.385254,0.42481 4.554199,0.94238 6.516602,1.54346 1.953125,0.61084 3.639648,1.38183 5.041504,2.32715 1.405273,0.94189 2.494141,2.06689 3.256836,3.38818 0.763672,1.3169 1.147461,2.91992 1.147461,4.80225 v 0.10986 c 0,1.9541 -0.390137,3.71973 -1.17627,5.28271 -0.780762,1.56739 -1.88623,2.89063 -3.309082,3.97852 -1.424316,1.08301 -3.151855,1.91846 -5.179199,2.50635 -2.024904,0.59033 -4.306643,0.88476 -6.829592,0.88476 z" id="path8" /><polygon fill="#b0b0b0" points="69.446777,90.628418 69.446777,101.18896 58.447754,101.18896 58.447754,127.98535 45.95459,127.98535 45.95459,101.18896 34.958984,101.18896 34.958984,90.628418 " id="polygon9" /><path fill="#b0b0b0" d="m 89.086914,108.40137 c 1.495605,0 2.671875,-0.32129 3.521484,-0.96045 0.854004,-0.6416 1.283203,-1.53467 1.283203,-2.67285 v -0.10791 c 0,-1.20704 -0.429199,-2.10791 -1.283203,-2.68995 -0.849609,-0.58837 -2.011719,-0.87988 -3.466309,-0.87988 h -5.447754 v 7.31104 z M 71.203125,90.628418 h 18.258301 c 3.344238,0 6.092773,0.383789 8.244141,1.148438 2.15625,0.763672 3.886723,1.806641 5.204593,3.123535 1.1416,1.135254 1.99463,2.418945 2.5664,3.837891 0.56641,1.423338 0.85352,3.101558 0.85352,5.013668 v 0.11377 c 0,2.7378 -0.65869,5.05127 -1.97949,6.93457 -1.31299,1.88526 -3.10938,3.38477 -5.390628,4.4834 l 8.698238,12.70166 H 93.40918 l -7.047363,-10.67383 h -0.101562 -2.565918 v 10.67383 H 71.203125 Z" id="path9" /><polygon fill="#b0b0b0" points="179.88965,88.286133 159.78174,127.98535 171.75342,127.98535 179.88965,111.91406 188.03223,127.98535 200,127.98535 " id="polygon10" /><polygon fill="#b0b0b0" points="123.91846,88.286133 103.81885,127.98535 115.78418,127.98535 123.91846,111.91406 132.05811,127.98535 144.02881,127.98535 " id="polygon11" /><polygon fill="#b0b0b0" points="151.9126,130.32715 172.01416,90.628418 160.05176,90.628418 151.9126,106.69873 143.76709,90.628418 131.79639,90.628418 " id="polygon12" /><path fill="#b0b0b0" d="m 19.259735,174.16472 c -3.80566,0 -7.35791,-0.52978 -10.6499003,-1.57568 -3.29248,-1.05274 -6.12842,-2.62744 -8.51172003,-4.72119 l 6.67041003,-7.94922 c 2.02734,1.56299 4.1660203,2.68506 6.4038103,3.35937 2.2417,0.67627 4.46777,1.01514 6.67383,1.01514 1.14111,0 1.95605,-0.14404 2.45605,-0.42529 0.50195,-0.28614 0.7461,-0.67823 0.7461,-1.17432 v -0.10644 c 0,-0.53809 -0.36866,-0.98828 -1.09424,-1.33741 -0.72559,-0.35595 -2.09278,-0.72753 -4.08496,-1.11767 -2.09815,-0.43018 -4.10157,-0.93115 -6.00244,-1.49854 -1.9047903,-0.56445 -3.5756903,-1.29736 -5.0161203,-2.18847 -1.44287,-0.88672 -2.58935,-2.01172 -3.44531,-3.36231 -0.854,-1.354 -1.28125,-3.00928 -1.28125,-4.96484 v -0.10645 c 0,-1.78076 0.34619,-3.4375 1.04297,-4.96582 0.68799,-1.5293 1.7041,-2.8667 3.03906,-4.00195 1.33545,-1.13916 2.99317,-2.02735 4.9697303,-2.67188 1.96777,-0.63916 4.23828,-0.95947 6.8042,-0.95947 3.625,0 6.80078,0.4292 9.52392,1.28515 2.72315,0.84766 5.167,2.13086 7.34082,3.83741 l -6.08349,8.43506 c -1.77979,-1.28418 -3.65821,-2.2168 -5.63184,-2.80615 -1.97998,-0.58838 -3.83154,-0.88282 -5.57959,-0.88282 -0.92285,0 -1.60742,0.14258 -2.05176,0.42823 -0.45263,0.28418 -0.66797,0.65966 -0.66797,1.1206 v 0.10596 c 0,0.50195 0.33448,0.92871 1.01319,1.28613 0.6792,0.35401 1.99414,0.72852 3.94824,1.11963 2.38526,0.42481 4.5542,0.94238 6.5166,1.54346 1.95313,0.61084 3.63965,1.38183 5.04151,2.32715 1.40527,0.94189 2.49414,2.06689 3.25683,3.38818 0.76367,1.3169 1.14746,2.91992 1.14746,4.80225 v 0.10986 c 0,1.9541 -0.39013,3.71973 -1.17627,5.28271 -0.78076,1.56739 -1.88623,2.89063 -3.30908,3.97852 -1.42431,1.08301 -3.15185,1.91846 -5.1792,2.50635 -2.0249,0.59033 -4.30664,0.88476 -6.82959,0.88476 z" id="path8-8" style="fill:#000000;fill-opacity:1" /><polygon fill="#b0b0b0" points="34.958984,90.628418 69.446777,90.628418 69.446777,101.18896 58.447754,101.18896 58.447754,127.98535 45.95459,127.98535 45.95459,101.18896 34.958984,101.18896 " id="polygon9-5" transform="translate(0.09811467,45.48064)" style="fill:#000000;fill-opacity:1" /><path fill="#b0b0b0" d="m 89.185025,153.88201 c 1.49561,0 2.67188,-0.32129 3.52149,-0.96045 0.854,-0.6416 1.2832,-1.53467 1.2832,-2.67285 v -0.10791 c 0,-1.20704 -0.4292,-2.10791 -1.2832,-2.68995 -0.84961,-0.58837 -2.01172,-0.87988 -3.46631,-0.87988 h -5.44776 v 7.31104 z m -17.88379,-17.77295 h 18.25831 c 3.34423,0 6.09277,0.38378 8.24414,1.14843 2.15625,0.76367 3.886715,1.80664 5.204585,3.12354 1.1416,1.13525 1.99463,2.41894 2.5664,3.83789 0.56641,1.42334 0.85352,3.10156 0.85352,5.01367 v 0.11377 c 0,2.7378 -0.65869,5.05127 -1.97949,6.93457 -1.31299,1.88526 -3.10938,3.38477 -5.390625,4.4834 l 8.698235,12.70166 H 93.507295 l -7.04736,-10.67383 h -0.10157 -2.56591 v 10.67383 h -12.49122 z" id="path9-5" style="fill:#000000;fill-opacity:1" /><polygon fill="#b0b0b0" points="159.78174,127.98535 171.75342,127.98535 179.88965,111.91406 188.03223,127.98535 200,127.98535 179.88965,88.286133 " id="polygon10-0" transform="translate(0.09811467,45.48064)" style="fill:#000000;fill-opacity:1" /><polygon fill="#b0b0b0" points="103.81885,127.98535 115.78418,127.98535 123.91846,111.91406 132.05811,127.98535 144.02881,127.98535 123.91846,88.286133 " id="polygon11-1" transform="translate(0.09811467,45.48064)" style="fill:#000000;fill-opacity:1" /><polygon fill="#b0b0b0" points="172.01416,90.628418 160.05176,90.628418 151.9126,106.69873 143.76709,90.628418 131.79639,90.628418 151.9126,130.32715 " id="polygon12-5" transform="translate(0.09811467,45.48064)" style="fill:#000000;fill-opacity:1" /></svg>
